<svg width="148.601" height="84.901" viewBox="0 0 148.601 84.901" xmlns="http://www.w3.org/2000/svg">
    <g id="svgGroup" stroke-linecap="round" fill-rule="evenodd" font-size="9pt" stroke="#000" stroke-width="0.25mm"
       fill="#000" style="stroke:#000;stroke-width:0.25mm;fill:#000">
        <path d="M 57.101 84.901 L 25.601 84.901 Q 18.715 84.901 13.758 83.003 A 21.087 21.087 0 0 1 11.151 81.801 Q 5.501 78.701 2.751 73.201 A 25.796 25.796 0 0 1 0.333 65.301 A 33.518 33.518 0 0 1 0.001 60.501 L 0.001 32.301 Q 0.001 21.501 6.301 16.101 L 19.201 5.201 Q 25.283 0.1 38.004 0.003 A 65.02 65.02 0 0 1 38.501 0.001 L 63.501 0.001 A 6.622 6.622 0 0 1 65.321 0.229 Q 67.363 0.813 67.905 2.897 A 6.777 6.777 0 0 1 68.101 4.601 L 68.101 16.701 A 7.067 7.067 0 0 1 67.971 18.103 Q 67.674 19.566 66.701 20.401 L 53.701 31.201 A 3.065 3.065 0 0 1 52.545 31.91 Q 52.063 32.083 51.468 32.153 A 7.422 7.422 0 0 1 50.601 32.201 L 37.601 32.201 L 37.601 46.601 Q 37.799 46.303 38.391 45.71 A 19.909 19.909 0 0 1 38.401 45.701 L 51.301 34.801 A 3.559 3.559 0 0 1 52.455 34.185 Q 53.32 33.901 54.501 33.901 L 70.001 33.901 A 6.622 6.622 0 0 1 71.821 34.129 Q 73.863 34.713 74.405 36.797 A 6.777 6.777 0 0 1 74.601 38.501 L 74.601 69.401 A 7.067 7.067 0 0 1 74.471 70.803 Q 74.174 72.266 73.201 73.101 L 60.201 83.901 A 3.065 3.065 0 0 1 59.045 84.61 Q 58.563 84.783 57.968 84.853 A 7.422 7.422 0 0 1 57.101 84.901 Z M 38.501 73.001 L 70.001 73.001 A 5.183 5.183 0 0 0 71.426 72.822 Q 73.023 72.365 73.447 70.734 A 5.304 5.304 0 0 0 73.601 69.401 L 73.601 38.501 A 5.183 5.183 0 0 0 73.422 37.076 Q 72.965 35.479 71.334 35.054 A 5.304 5.304 0 0 0 70.001 34.901 L 54.501 34.901 A 5.183 5.183 0 0 0 53.076 35.079 Q 51.479 35.537 51.054 37.167 A 5.304 5.304 0 0 0 50.901 38.501 L 50.901 54.101 L 41.201 54.101 Q 37.546 54.101 36.795 51.007 A 7.679 7.679 0 0 1 36.601 49.201 L 36.601 25.301 A 5.794 5.794 0 0 1 36.976 23.128 Q 38.114 20.301 42.701 20.301 L 63.501 20.301 A 5.183 5.183 0 0 0 64.926 20.122 Q 66.523 19.665 66.947 18.034 A 5.304 5.304 0 0 0 67.101 16.701 L 67.101 4.601 A 5.183 5.183 0 0 0 66.922 3.176 Q 66.465 1.579 64.834 1.154 A 5.304 5.304 0 0 0 63.501 1.001 L 38.501 1.001 Q 26.14 1.001 20.131 5.812 A 15.229 15.229 0 0 0 19.901 6.001 A 15.743 15.743 0 0 0 14.91 13.778 Q 14.122 16.401 13.949 19.578 A 33.629 33.629 0 0 0 13.901 21.401 L 13.901 52.601 A 28.576 28.576 0 0 0 14.458 58.437 Q 15.729 64.524 19.901 68.001 A 18.438 18.438 0 0 0 25.595 71.144 Q 30.823 73.001 38.501 73.001 Z M 99.401 73.001 L 114.901 73.001 A 5.183 5.183 0 0 0 116.326 72.822 Q 117.923 72.365 118.347 70.734 A 5.304 5.304 0 0 0 118.501 69.401 L 118.501 49.701 L 135.901 49.701 A 5.183 5.183 0 0 0 137.326 49.522 Q 138.923 49.065 139.347 47.434 A 5.304 5.304 0 0 0 139.501 46.101 L 139.501 34.101 A 5.183 5.183 0 0 0 139.322 32.676 Q 138.865 31.079 137.234 30.654 A 5.304 5.304 0 0 0 135.901 30.501 L 118.501 30.501 L 118.501 20.101 L 144.001 20.101 A 5.183 5.183 0 0 0 145.426 19.922 Q 147.023 19.465 147.447 17.834 A 5.304 5.304 0 0 0 147.601 16.501 L 147.601 4.601 A 5.183 5.183 0 0 0 147.422 3.176 Q 146.965 1.579 145.334 1.154 A 5.304 5.304 0 0 0 144.001 1.001 L 99.401 1.001 A 5.183 5.183 0 0 0 97.976 1.179 Q 96.379 1.637 95.954 3.267 A 5.304 5.304 0 0 0 95.801 4.601 L 95.801 69.401 A 5.183 5.183 0 0 0 95.979 70.825 Q 96.437 72.423 98.068 72.847 A 5.304 5.304 0 0 0 99.401 73.001 Z M 102.001 84.901 L 86.501 84.901 A 6.622 6.622 0 0 1 84.68 84.673 Q 82.639 84.088 82.097 82.004 A 6.777 6.777 0 0 1 81.901 80.301 L 81.901 15.501 A 7.067 7.067 0 0 1 82.031 14.098 Q 82.327 12.635 83.301 11.801 L 96.201 0.901 A 3.559 3.559 0 0 1 97.355 0.285 Q 98.22 0.001 99.401 0.001 L 144.001 0.001 A 6.622 6.622 0 0 1 145.821 0.229 Q 147.863 0.813 148.405 2.897 A 6.777 6.777 0 0 1 148.601 4.601 L 148.601 16.501 A 7.067 7.067 0 0 1 148.471 17.903 Q 148.174 19.366 147.201 20.201 L 136.001 29.501 A 6.319 6.319 0 0 1 137.802 29.735 Q 139.795 30.328 140.316 32.425 A 6.959 6.959 0 0 1 140.501 34.101 L 140.501 46.101 A 7.067 7.067 0 0 1 140.371 47.503 Q 140.074 48.966 139.101 49.801 L 126.101 60.601 A 3.065 3.065 0 0 1 124.945 61.31 Q 124.463 61.483 123.868 61.553 A 7.422 7.422 0 0 1 123.001 61.601 L 119.501 61.601 L 119.501 69.401 A 7.067 7.067 0 0 1 119.371 70.803 Q 119.074 72.266 118.101 73.101 L 105.101 83.901 A 3.065 3.065 0 0 1 103.945 84.61 Q 103.463 84.783 102.868 84.853 A 7.422 7.422 0 0 1 102.001 84.901 Z M 61.701 43.901 L 62.701 43.901 L 62.701 64.001 L 42.801 64.001 Q 36.141 64.001 32.311 62.919 A 16.013 16.013 0 0 1 31.601 62.701 A 12.083 12.083 0 0 1 29.233 61.638 Q 27.208 60.432 26.251 58.551 A 11.888 11.888 0 0 1 25.312 55.946 Q 24.997 54.641 24.876 53.101 A 25.613 25.613 0 0 1 24.801 51.101 L 24.801 23.101 A 27.841 27.841 0 0 1 24.946 20.161 Q 25.244 17.366 26.151 15.451 A 7.675 7.675 0 0 1 29.346 12.054 A 10.802 10.802 0 0 1 30.951 11.301 A 16.097 16.097 0 0 1 33.395 10.615 Q 36.401 10.001 40.801 10.001 L 58.101 10.001 L 58.101 11.001 L 40.801 11.001 A 48.968 48.968 0 0 0 37.452 11.107 Q 34.284 11.325 32.142 11.988 A 12.919 12.919 0 0 0 31.651 12.151 A 9.345 9.345 0 0 0 29.414 13.275 A 6.952 6.952 0 0 0 27.101 15.951 A 10.985 10.985 0 0 0 26.309 18.198 Q 26.027 19.358 25.902 20.739 A 26.169 26.169 0 0 0 25.801 23.101 L 25.801 51.101 Q 25.801 55.401 27.251 58.051 A 7.136 7.136 0 0 0 29.766 60.669 Q 30.898 61.383 32.401 61.851 A 20.328 20.328 0 0 0 35.006 62.457 Q 38.195 63.001 42.801 63.001 L 61.701 63.001 L 61.701 43.901 Z M 107.701 64.001 L 106.701 64.001 L 106.701 10.001 L 138.601 10.001 L 138.601 11.001 L 107.701 11.001 L 107.701 39.601 L 130.501 39.601 L 130.501 40.601 L 107.701 40.601 L 107.701 64.001 Z"
              vector-effect="non-scaling-stroke"/>
    </g>
</svg>